<?xml version="1.0" encoding="utf-8"?>
<!-- Generator: Adobe Illustrator 27.0.1, SVG Export Plug-In . SVG Version: 6.00 Build 0)  -->
<svg version="1.1" xmlns="http://www.w3.org/2000/svg" xmlns:xlink="http://www.w3.org/1999/xlink" x="0px" y="0px"
	 viewBox="0 0 1000 1000" style="enable-background:new 0 0 1000 1000;" xml:space="preserve">
<style type="text/css">
	.st0{fill:#E6AA5B;}
</style>
<g id="bg">
</g>
<g id="logo">
	<rect x="0.25" y="0" class="st0" width="1000" height="1000"/>
	<g>
		<g>
			<path d="M406.45,480.36c20.62-49.98,69.98-104.63,85.03-120.61v-17.11l-4.42,4.47c-3.18,3.21-61.1,62.18-88.19,120.55
				c-2.22,4.79-4.23,9.57-5.99,14.32c-4.84,13.06-7.8,25.86-7.8,37.74c0,81.86,92.86,97.12,93.8,97.26l7.08,1.09l-12.44-14.13
				c-20.47-5.04-76.25-24.27-76.25-84.23c0-8.44,1.68-17.47,4.61-26.82C402.51,490.84,405.94,482.01,406.45,480.36z"/>
			<path d="M343.69,491.55c0-24.87,4.5-52.55,24.06-83.74c1.48-11.9,4.35-23.56,9.18-34.56c-37.23,42.31-46.01,87.91-46.01,118.29
				c0,108.34,94.03,157.07,160.8,157.07v-12.21C430.25,636.41,343.69,591.47,343.69,491.55z"/>
			<path d="M491.48,269.11v-15.33l-3.91,3.13c-1.1,0.88-27.36,21.99-54.04,52.54c-36.29,41.56-54.69,78.81-54.69,110.72
				c0,6.66,0.25,13.33,0.92,19.96c0.58,5.73,1.47,11.43,2.84,17.04c1.21,4.97,2.8,9.85,4.86,14.56c1.4,3.19,2.91,6.28,4.83,9.2
				c1.79,2.73,3.78,5.34,5.94,7.8c4.6,5.25,10,9.48,15.66,13.63c2.9,2.13,5.9,4.33,8.65,6.64c31.29,26.32,48.8,58.97,50.97,94.82
				l12.44,14.13l-0.02-6.86c-0.1-42.15-19.24-80.47-55.34-110.84c-3.06-2.57-6.22-4.9-9.29-7.14c-2.73-2.01-5.48-4.01-8.08-6.17
				c-1.27-1.06-2.5-2.15-3.68-3.3c-0.58-0.57-1.15-1.15-1.69-1.75c-1.92-2.1-3.62-4.38-5.14-6.76c-1.55-2.43-2.7-4.97-3.87-7.59
				c-5.37-12.06-7.83-27.21-7.83-47.37C391.03,358.03,472.5,285.22,491.48,269.11z"/>
			<path d="M576.08,480.36c-20.62-49.98-69.98-104.63-85.03-120.61v-17.11l4.42,4.47c3.18,3.21,61.1,62.18,88.19,120.55
				c2.22,4.79,4.23,9.57,5.99,14.32c4.84,13.06,7.8,25.86,7.8,37.74c0,81.86-92.86,97.12-93.8,97.26l-7.08,1.09l12.44-14.13
				c20.47-5.04,76.25-24.27,76.25-84.23c0-8.44-1.68-17.47-4.61-26.82C580.02,490.84,576.59,482.01,576.08,480.36z"/>
			<path d="M639.29,491.55c0-24.87-4.5-52.55-24.06-83.74c-1.48-11.9-4.35-23.56-9.18-34.56c37.23,42.31,46.01,87.91,46.01,118.29
				c0,108.34-94.03,157.07-160.8,157.07v-12.21C552.73,636.41,639.29,591.47,639.29,491.55z"/>
			<path d="M491.05,269.11v-15.33l3.91,3.13c1.1,0.88,27.36,21.99,54.04,52.54c36.29,41.56,54.69,78.81,54.69,110.72
				c0,6.66-0.25,13.33-0.92,19.96c-0.58,5.73-1.47,11.43-2.84,17.04c-1.21,4.97-2.8,9.85-4.86,14.56c-1.4,3.19-2.91,6.28-4.83,9.2
				c-1.79,2.73-3.78,5.34-5.94,7.8c-4.6,5.25-10,9.48-15.66,13.63c-2.9,2.13-5.9,4.33-8.65,6.64
				c-31.29,26.32-48.8,58.97-50.97,94.82l-12.44,14.13l0.02-6.86c0.1-42.15,19.24-80.47,55.34-110.84c3.06-2.57,6.22-4.9,9.29-7.14
				c2.73-2.01,5.48-4.01,8.08-6.17c1.27-1.06,2.5-2.15,3.68-3.3c0.58-0.57,1.15-1.15,1.69-1.75c1.92-2.1,3.62-4.38,5.14-6.76
				c1.55-2.43,2.7-4.97,3.87-7.59c5.37-12.06,7.83-27.21,7.83-47.37C591.5,358.03,510.03,285.22,491.05,269.11z"/>
		</g>
		<g>
			<g>
				<path d="M324.98,734.81l-10.77-29.99c-0.49-1.32-0.89-2.42-1.22-3.31c-0.33-0.88-0.62-1.63-0.86-2.25
					c-0.24-0.62-0.45-1.12-0.63-1.52c-0.18-0.4-0.33-0.77-0.46-1.12c-0.49-1.1-0.98-1.95-1.49-2.54c-0.51-0.59-1.02-1.03-1.55-1.32
					c-0.53-0.29-1.07-0.45-1.62-0.5c-0.55-0.04-1.11-0.07-1.68-0.07l-0.33-0.26l-0.13-1.19l0.06-0.27c0.31,0,0.76,0.03,1.35,0.1
					c0.6,0.07,1.22,0.1,1.88,0.1c0.66,0,1.3,0,1.92,0c0.62,0,1.08,0,1.39,0h2.25c0.31,0,0.81,0,1.52,0c0.7,0,1.44,0,2.21,0
					c0.77,0,1.51,0,2.21,0c0.7,0,1.21,0,1.52,0l0.13,0.07l-0.2,1.19l-0.33,0.26c-1.28,0-2.27,0.14-2.97,0.43
					c-0.7,0.29-1.06,1.07-1.06,2.35c0,1.01,0.34,2.43,1.02,4.26c0.68,1.83,1.53,4.13,2.54,6.9l4.49,12.16
					c0.84,2.29,1.57,4.35,2.21,6.18c0.64,1.83,1.22,3.4,1.75,4.72c0.49-1.28,1.07-2.8,1.75-4.56c0.68-1.76,1.46-3.88,2.34-6.34
					l4.49-12.16c0.62-1.72,1.18-3.24,1.68-4.56c0.51-1.32,0.94-2.51,1.29-3.57c-0.22-0.7-0.47-1.39-0.76-2.05
					c-0.29-0.66-0.64-1.26-1.06-1.78c-0.42-0.53-0.96-0.97-1.62-1.32c-0.66-0.35-1.48-0.57-2.44-0.66l-0.33-0.26l-0.13-1.19
					l0.06-0.27c0.31,0,0.76,0.03,1.35,0.1c0.6,0.07,1.21,0.1,1.85,0.1c0.64,0,1.25,0,1.85,0s1.04,0,1.35,0h2.18
					c0.31,0,0.79,0,1.45,0c0.66,0,1.36,0,2.11,0c0.75,0,1.45,0,2.11,0s1.14,0,1.45,0l0.13,0.07l-0.2,1.19l-0.33,0.26
					c-0.48,0-1,0.08-1.55,0.23c-0.55,0.15-1.06,0.38-1.52,0.69c-0.46,0.31-0.84,0.68-1.12,1.12c-0.29,0.44-0.43,0.95-0.43,1.52
					c0,0.44,0.04,0.75,0.13,0.93c0.26,1.1,0.69,2.42,1.29,3.96c0.59,1.54,1.27,3.37,2.01,5.48l4.49,12.16
					c0.84,2.25,1.59,4.31,2.25,6.18c0.66,1.87,1.23,3.45,1.72,4.72c0.48-1.28,1.07-2.8,1.75-4.56c0.68-1.76,1.46-3.88,2.34-6.34
					l4.49-12.16c1.01-2.77,1.86-5.07,2.54-6.9c0.68-1.83,1.02-3.25,1.02-4.26c0-1.28-0.35-2.06-1.06-2.35
					c-0.71-0.29-1.7-0.43-2.98-0.43l-0.26-0.26l-0.2-1.19l0.13-0.07c0.31,0,0.79,0,1.45,0c0.66,0,1.34,0,2.05,0c0.7,0,1.39,0,2.05,0
					c0.66,0,1.14,0,1.45,0h1.25c0.31,0,0.76,0,1.35,0c0.6,0,1.22,0,1.88,0s1.3-0.03,1.92-0.1c0.62-0.07,1.08-0.1,1.39-0.1l0.13,0.27
					l-0.2,1.19l-0.33,0.26c-0.57,0-1.12,0.02-1.65,0.07c-0.53,0.04-1.06,0.21-1.59,0.5c-0.53,0.29-1.05,0.73-1.55,1.32
					c-0.51,0.6-1.02,1.44-1.55,2.54c-0.13,0.35-0.32,0.79-0.56,1.32c-0.24,0.53-0.65,1.52-1.22,2.97c-0.57,1.45-1.4,3.53-2.48,6.24
					c-1.08,2.71-2.52,6.4-4.33,11.06c-0.62,1.54-1.24,3.14-1.88,4.79c-0.64,1.65-1.26,3.22-1.85,4.69c-0.6,1.48-1.11,2.79-1.55,3.93
					c-0.44,1.15-0.75,1.96-0.92,2.44l-3.44,0.73h-0.79l-11.5-31.84c-0.62,1.54-1.4,3.52-2.34,5.95c-0.95,2.42-2.15,5.53-3.6,9.31
					c-0.57,1.54-1.19,3.14-1.85,4.79c-0.66,1.65-1.29,3.22-1.88,4.69c-0.6,1.48-1.11,2.79-1.55,3.93c-0.44,1.15-0.75,1.96-0.93,2.44
					l-3.43,0.73H324.98z"/>
				<path d="M408.22,690.68c0.57,0,1.44,0,2.61,0c1.17,0,2.34,0,3.54,0c1.19,0,2.26,0,3.2,0c0.95,0,1.53,0,1.75,0l0.33,0.6
					l-0.26,7.19h-1.65l-0.26-0.27c-0.09-1.03-0.21-1.83-0.36-2.41c-0.15-0.58-0.59-1.01-1.32-1.27c-0.73-0.27-1.82-0.4-3.27-0.4
					c-1.45,0-3.5,0-6.14,0h-6.34l-0.13,2.55c-0.04,0.69-0.08,1.28-0.1,1.76c-0.02,0.48-0.04,1.06-0.07,1.76
					c-0.02,0.69-0.03,1.53-0.03,2.51c0,0.98,0,3.34,0,7.08c1.32,0,2.64,0,3.96,0c1.32,0,2.52,0,3.6,0s1.99-0.08,2.74-0.23
					c0.75-0.16,1.26-0.39,1.52-0.7c0.35-0.35,0.66-0.71,0.92-1.07c0.27-0.36,0.4-0.87,0.4-1.54l0.33-0.33l1.12-0.13l0.26,0.13
					c-0.09,1.01-0.16,1.89-0.23,2.64c-0.06,0.75-0.1,1.6-0.1,2.57c0,1.05,0.03,2.03,0.1,2.93c0.07,0.9,0.14,1.88,0.23,2.93
					l-0.26,0.13l-1.19-0.13l-0.27-0.2c0-0.72-0.13-1.38-0.4-1.98c-0.26-0.6-0.57-1.11-0.92-1.51c-0.27-0.27-0.77-0.47-1.52-0.6
					c-0.75-0.13-1.65-0.2-2.71-0.2c-1.06,0-2.25,0-3.57,0c-1.32,0-2.66,0-4.03,0v6.38c0,1.58,0,2.86,0,3.85
					c0,0.99,0.01,1.86,0.03,2.63c0.02,0.77,0.05,1.47,0.1,2.11c0.04,0.64,0.11,1.37,0.2,2.2c0,0.84,0.44,1.26,1.32,1.26h5.62
					c2.64,0,4.72-0.05,6.24-0.17c1.52-0.11,2.67-0.34,3.47-0.69c0.79-0.35,1.35-0.89,1.68-1.62c0.33-0.73,0.65-1.68,0.96-2.87
					l0.27-0.27h1.72l-1.19,8.33l-0.53,0.66c-0.22,0-0.73,0-1.52,0c-0.79,0-1.68,0-2.68,0c-0.99,0-1.98,0-2.97,0
					c-0.99,0-1.77,0-2.34,0h-13.34c-0.31,0-0.82,0-1.52,0c-0.71,0-1.43,0-2.18,0c-0.75,0-1.48,0-2.18,0c-0.7,0-1.21,0-1.52,0
					l-0.13-0.07l0.2-1.19l0.33-0.26c0.7,0,1.36-0.03,1.98-0.1c0.62-0.07,1.12-0.25,1.52-0.56c0.35-0.31,0.69-0.7,1.02-1.19
					c0.33-0.48,0.54-1.34,0.63-2.58c0-0.31,0.01-0.67,0.03-1.09c0.02-0.42,0.04-0.93,0.06-1.55c0.02-0.62,0.03-1.36,0.03-2.25
					c0-0.88,0-1.98,0-3.31v-13.41c0-1.54,0-2.84,0-3.9c0-1.06,0-1.96,0-2.71c0-0.75-0.01-1.39-0.03-1.92
					c-0.02-0.53-0.05-1.06-0.1-1.59c-0.09-1.19-0.3-2.04-0.63-2.54c-0.33-0.51-0.67-0.91-1.02-1.22c-0.4-0.31-0.9-0.5-1.52-0.56
					c-0.62-0.06-1.28-0.1-1.98-0.1l-0.33-0.26l-0.2-1.19l0.13-0.07c0.31,0,0.81,0,1.52,0c0.7,0,1.46,0,2.28,0c0.81,0,1.61,0,2.38,0
					c0.77,0,1.4,0,1.88,0H408.22z"/>
				<path d="M437.48,696.63c-0.09-1.23-0.29-2.09-0.6-2.58c-0.31-0.48-0.64-0.88-0.99-1.19c-0.4-0.31-0.9-0.5-1.52-0.56
					c-0.62-0.06-1.28-0.1-1.98-0.1l-0.33-0.26l-0.2-1.19l0.13-0.07c0.31,0,0.81,0,1.52,0c0.7,0,1.43,0,2.18,0c0.75,0,1.47,0,2.18,0
					c0.7,0,1.21,0,1.52,0h1.26c0.31,0,0.81,0,1.52,0s1.43,0,2.18,0c0.75,0,1.47,0,2.18,0c0.7,0,1.21,0,1.52,0l0.13,0.07l-0.2,1.19
					l-0.26,0.26c-0.71,0-1.38,0.03-2.01,0.1c-0.64,0.07-1.16,0.26-1.55,0.56c-0.35,0.31-0.69,0.71-1.02,1.22
					c-0.33,0.51-0.54,1.35-0.63,2.54c-0.04,0.62-0.08,1.19-0.1,1.72c-0.02,0.53-0.03,1.15-0.03,1.85c0,0.7,0,1.56,0,2.58
					c0,1.01,0,2.31,0,3.9v12.16c0,1.54,0,2.82,0,3.83c0,1.01,0.01,1.89,0.03,2.64c0.02,0.75,0.05,1.45,0.1,2.11
					c0.04,0.66,0.09,1.41,0.13,2.25c0.04,0.84,0.5,1.26,1.39,1.26h5.62c2.64,0,4.64-0.05,5.98-0.17c1.34-0.11,2.31-0.34,2.91-0.69
					c0.59-0.35,0.96-0.89,1.09-1.62c0.13-0.73,0.35-1.68,0.66-2.87l0.2-0.27h1.72l-1.19,8.33l-0.53,0.66c-0.22,0-0.63,0-1.22,0
					c-0.59,0-1.28,0-2.05,0c-0.77,0-1.56,0-2.38,0c-0.82,0-1.51,0-2.08,0H439.4c-0.31,0-0.82,0-1.52,0c-0.71,0-1.43,0-2.18,0
					c-0.75,0-1.48,0-2.18,0c-0.7,0-1.21,0-1.52,0l-0.13-0.07l0.2-1.19l0.33-0.26c0.7,0,1.36-0.03,1.98-0.1
					c0.62-0.07,1.12-0.25,1.52-0.56c0.35-0.31,0.68-0.75,0.99-1.32c0.31-0.57,0.53-1.39,0.66-2.44c0.04-0.31,0.08-0.67,0.1-1.09
					c0.02-0.42,0.03-0.93,0.03-1.55c0-0.62,0-1.36,0-2.25c0-0.88,0-1.98,0-3.31v-13.41c0-1.54,0-2.84,0-3.9
					c0-1.06-0.01-1.96-0.03-2.71c-0.02-0.75-0.04-1.39-0.06-1.92C437.56,697.68,437.53,697.16,437.48,696.63z"/>
				<path d="M476.53,696.63c-0.09-1.23-0.29-2.09-0.6-2.58c-0.31-0.48-0.64-0.88-0.99-1.19c-0.4-0.31-0.9-0.5-1.52-0.56
					c-0.62-0.06-1.28-0.1-1.98-0.1l-0.33-0.26l-0.2-1.19l0.13-0.07c0.31,0,0.81,0,1.52,0c0.7,0,1.43,0,2.18,0c0.75,0,1.47,0,2.18,0
					c0.7,0,1.21,0,1.52,0h1.26c0.31,0,0.81,0,1.52,0s1.43,0,2.18,0c0.75,0,1.47,0,2.18,0c0.7,0,1.21,0,1.52,0l0.13,0.07l-0.2,1.19
					l-0.26,0.26c-0.71,0-1.38,0.03-2.01,0.1c-0.64,0.07-1.16,0.26-1.55,0.56c-0.35,0.31-0.69,0.71-1.02,1.22
					c-0.33,0.51-0.54,1.35-0.63,2.54c-0.04,0.62-0.08,1.19-0.1,1.72c-0.02,0.53-0.03,1.15-0.03,1.85c0,0.7,0,1.56,0,2.58
					c0,1.01,0,2.31,0,3.9v12.16c0,1.54,0,2.82,0,3.83c0,1.01,0.01,1.89,0.03,2.64c0.02,0.75,0.05,1.45,0.1,2.11
					c0.04,0.66,0.09,1.41,0.13,2.25c0.04,0.84,0.5,1.26,1.39,1.26h5.62c2.64,0,4.64-0.05,5.98-0.17c1.34-0.11,2.31-0.34,2.91-0.69
					c0.59-0.35,0.96-0.89,1.09-1.62c0.13-0.73,0.35-1.68,0.66-2.87l0.2-0.27h1.72l-1.19,8.33l-0.53,0.66c-0.22,0-0.63,0-1.22,0
					c-0.59,0-1.28,0-2.05,0c-0.77,0-1.56,0-2.38,0c-0.82,0-1.51,0-2.08,0h-13.34c-0.31,0-0.82,0-1.52,0c-0.71,0-1.43,0-2.18,0
					c-0.75,0-1.48,0-2.18,0c-0.7,0-1.21,0-1.52,0l-0.13-0.07l0.2-1.19l0.33-0.26c0.7,0,1.36-0.03,1.98-0.1
					c0.62-0.07,1.12-0.25,1.52-0.56c0.35-0.31,0.68-0.75,0.99-1.32c0.31-0.57,0.53-1.39,0.66-2.44c0.04-0.31,0.08-0.67,0.1-1.09
					c0.02-0.42,0.03-0.93,0.03-1.55c0-0.62,0-1.36,0-2.25c0-0.88,0-1.98,0-3.31v-13.41c0-1.54,0-2.84,0-3.9
					c0-1.06-0.01-1.96-0.03-2.71c-0.02-0.75-0.04-1.39-0.06-1.92C476.61,697.68,476.57,697.16,476.53,696.63z"/>
				<path d="M553.89,690.75l-0.13,1.16l-0.33,0.26c-0.7,0-1.38,0.03-2.01,0.1c-0.64,0.06-1.13,0.25-1.49,0.56
					c-0.35,0.31-0.67,0.71-0.96,1.19c-0.29,0.49-0.47,1.34-0.56,2.58c-0.04,0.62-0.08,1.19-0.1,1.72c-0.02,0.53-0.04,1.15-0.07,1.85
					c-0.02,0.7-0.03,1.57-0.03,2.58c0,1.01,0,2.32,0,3.9v11.64c0,2.47,0.01,4.5,0.03,6.08c0.02,1.59,0.04,2.94,0.07,4.07
					c0.02,1.12,0.07,2.13,0.13,3.01c0.07,0.88,0.14,1.85,0.23,2.91l-0.53,0.2h-4.1l-0.66-0.79l-23.52-35.34
					c0,0.44-0.01,0.88-0.03,1.32c-0.02,0.44-0.03,0.98-0.03,1.62s0,1.38,0,2.21c0,0.84,0,1.87,0,3.1v12.16c0,0.53,0,1.22,0,2.08
					c0,0.86,0.01,1.75,0.03,2.67c0.02,0.93,0.04,1.82,0.07,2.67c0.02,0.86,0.05,1.55,0.1,2.08c0.09,1.1,0.27,1.93,0.56,2.48
					c0.29,0.55,0.65,0.98,1.09,1.29c0.35,0.27,0.82,0.44,1.39,0.53c0.57,0.09,1.3,0.13,2.18,0.13l0.33,0.26l0.2,1.19l-0.13,0.07
					c-0.31,0-0.78,0-1.42,0s-1.31,0-2.01,0c-0.7,0-1.38,0-2.01,0s-1.11,0-1.42,0h-1.26c-0.31,0-0.82,0-1.52,0c-0.71,0-1.43,0-2.18,0
					s-1.48,0-2.18,0c-0.7,0-1.21,0-1.52,0l-0.13-0.07l0.2-1.19l0.33-0.26c0.79,0,1.46-0.03,2.01-0.1c0.55-0.07,1.04-0.25,1.49-0.56
					c0.31-0.22,0.63-0.58,0.96-1.09c0.33-0.51,0.56-1.4,0.69-2.68c0.04-0.31,0.08-0.67,0.1-1.09c0.02-0.42,0.03-0.94,0.03-1.55
					c0-0.62,0-1.37,0-2.25c0-0.88,0-1.99,0-3.31v-13.42c0-1.54,0-2.84,0-3.9c0-1.06,0-1.96,0-2.71c0-0.75-0.01-1.39-0.03-1.92
					c-0.02-0.53-0.05-1.06-0.1-1.59c-0.09-0.93-0.29-1.71-0.59-2.35c-0.31-0.64-0.66-1.11-1.06-1.42c-0.4-0.31-0.89-0.5-1.49-0.56
					c-0.6-0.07-1.27-0.1-2.01-0.1l-0.33-0.26l-0.2-1.16l0.13-0.27c0.31,0,0.76,0.02,1.35,0.06c0.59,0.04,1.2,0.07,1.82,0.11
					c0.62,0.04,1.22,0.07,1.82,0.11c0.6,0.04,1.05,0.05,1.35,0.05h2.31c0.35,0,0.85,0,1.49,0c0.64,0,1.16-0.06,1.55-0.2l0.33,0.2
					c0.17,0.62,0.54,1.47,1.09,2.54c0.55,1.08,1.21,2.28,1.98,3.6c0.77,1.32,1.61,2.73,2.51,4.23c0.9,1.5,1.82,2.97,2.74,4.43
					c3.35,5.37,6.27,9.76,8.75,13.15c2.49,3.39,4.08,5.6,4.79,6.61c0-0.31,0.01-0.6,0.03-0.86c0.02-0.27,0.03-0.57,0.03-0.93
					c0-0.35,0-0.79,0-1.32s0-1.23,0-2.12v-13.42c0-1.54,0-2.84,0-3.9c0-1.06-0.01-1.96-0.03-2.71c-0.02-0.75-0.04-1.39-0.07-1.92
					c-0.02-0.53-0.06-1.06-0.1-1.59c-0.09-1.23-0.29-2.09-0.6-2.58c-0.31-0.48-0.64-0.88-0.99-1.19c-0.4-0.31-0.92-0.5-1.55-0.56
					c-0.64-0.07-1.31-0.1-2.01-0.1l-0.26-0.26l-0.2-1.16l0.13-0.27c0.31,0,0.75,0.02,1.32,0.06c0.57,0.04,1.16,0.07,1.75,0.11
					c0.6,0.04,1.18,0.07,1.75,0.11c0.57,0.04,1.01,0.05,1.32,0.05h3.11c0.31,0,0.75,0,1.32,0c0.57,0,1.17-0.02,1.78-0.06
					c0.62-0.04,1.21-0.09,1.78-0.13c0.57-0.04,1.01-0.09,1.32-0.13L553.89,690.75z"/>
				<path d="M583.22,690.68c0.57,0,1.44,0,2.61,0c1.17,0,2.34,0,3.54,0c1.19,0,2.26,0,3.2,0c0.95,0,1.53,0,1.75,0l0.33,0.6
					l-0.26,7.19h-1.65l-0.26-0.27c-0.09-1.03-0.21-1.83-0.36-2.41c-0.15-0.58-0.59-1.01-1.32-1.27c-0.73-0.27-1.82-0.4-3.27-0.4
					c-1.45,0-3.5,0-6.14,0h-6.34l-0.13,2.55c-0.04,0.69-0.08,1.28-0.1,1.76c-0.02,0.48-0.04,1.06-0.07,1.76
					c-0.02,0.69-0.03,1.53-0.03,2.51c0,0.98,0,3.34,0,7.08c1.32,0,2.64,0,3.96,0c1.32,0,2.52,0,3.6,0c1.08,0,1.99-0.08,2.74-0.23
					c0.75-0.16,1.26-0.39,1.52-0.7c0.35-0.35,0.66-0.71,0.92-1.07c0.27-0.36,0.4-0.87,0.4-1.54l0.33-0.33l1.12-0.13l0.26,0.13
					c-0.09,1.01-0.16,1.89-0.23,2.64c-0.06,0.75-0.1,1.6-0.1,2.57c0,1.05,0.03,2.03,0.1,2.93c0.07,0.9,0.14,1.88,0.23,2.93
					l-0.26,0.13l-1.19-0.13l-0.27-0.2c0-0.72-0.13-1.38-0.4-1.98c-0.26-0.6-0.57-1.11-0.92-1.51c-0.27-0.27-0.77-0.47-1.52-0.6
					c-0.75-0.13-1.65-0.2-2.71-0.2c-1.06,0-2.25,0-3.57,0c-1.32,0-2.67,0-4.03,0v6.38c0,1.58,0,2.86,0,3.85
					c0,0.99,0.01,1.86,0.03,2.63c0.02,0.77,0.05,1.47,0.1,2.11c0.04,0.64,0.11,1.37,0.2,2.2c0,0.84,0.44,1.26,1.32,1.26h5.62
					c2.64,0,4.72-0.05,6.24-0.17c1.52-0.11,2.67-0.34,3.47-0.69c0.79-0.35,1.35-0.89,1.68-1.62c0.33-0.73,0.65-1.68,0.96-2.87
					l0.27-0.27h1.72l-1.19,8.33l-0.53,0.66c-0.22,0-0.73,0-1.52,0c-0.79,0-1.68,0-2.68,0c-0.99,0-1.98,0-2.97,0
					c-0.99,0-1.77,0-2.34,0h-13.34c-0.31,0-0.82,0-1.52,0c-0.71,0-1.43,0-2.18,0s-1.48,0-2.18,0s-1.21,0-1.52,0l-0.13-0.07l0.2-1.19
					l0.33-0.26c0.7,0,1.36-0.03,1.98-0.1c0.62-0.07,1.12-0.25,1.52-0.56c0.35-0.31,0.69-0.7,1.02-1.19
					c0.33-0.48,0.54-1.34,0.63-2.58c0-0.31,0.01-0.67,0.03-1.09c0.02-0.42,0.04-0.93,0.06-1.55c0.02-0.62,0.03-1.36,0.03-2.25
					c0-0.88,0-1.98,0-3.31v-13.41c0-1.54,0-2.84,0-3.9c0-1.06,0-1.96,0-2.71c0-0.75-0.01-1.39-0.03-1.92
					c-0.02-0.53-0.05-1.06-0.1-1.59c-0.09-1.19-0.3-2.04-0.63-2.54c-0.33-0.51-0.67-0.91-1.02-1.22c-0.4-0.31-0.9-0.5-1.52-0.56
					c-0.62-0.06-1.28-0.1-1.98-0.1l-0.33-0.26l-0.2-1.19l0.13-0.07c0.31,0,0.81,0,1.52,0s1.46,0,2.28,0c0.81,0,1.61,0,2.38,0
					c0.77,0,1.4,0,1.88,0H583.22z"/>
				<path d="M613.14,700.53c0,1.23,0.22,2.26,0.66,3.07c0.44,0.82,1.11,1.53,2.01,2.15c0.9,0.62,2.05,1.18,3.44,1.68
					c1.39,0.51,3.03,1.05,4.92,1.62c1.63,0.53,3.24,1.12,4.82,1.78c1.59,0.66,3,1.51,4.26,2.54c1.26,1.04,2.26,2.29,3.01,3.77
					c0.75,1.48,1.12,3.27,1.12,5.38c0,2.25-0.44,4.15-1.32,5.71c-0.88,1.56-2.05,2.83-3.5,3.8c-1.45,0.97-3.14,1.67-5.05,2.11
					c-1.92,0.44-3.93,0.66-6.04,0.66c-2.73,0-5.22-0.31-7.47-0.93c-2.25-0.62-4.27-1.39-6.08-2.31l-0.27-0.86l1.12-7.07h1.65
					l0.33,0.4c0.22,2.69,1.3,4.66,3.24,5.91c1.94,1.26,4.58,1.88,7.93,1.88c3.44,0,6.02-0.78,7.76-2.34
					c1.74-1.56,2.61-3.6,2.61-6.11c0-1.54-0.33-2.83-0.99-3.87c-0.66-1.03-1.53-1.92-2.61-2.64c-1.08-0.72-2.31-1.33-3.7-1.82
					c-1.39-0.48-2.79-0.97-4.2-1.45c-1.76-0.57-3.4-1.2-4.92-1.88c-1.52-0.68-2.84-1.49-3.96-2.41c-1.12-0.93-2-2.02-2.64-3.3
					c-0.64-1.28-0.96-2.8-0.96-4.56c0-2.07,0.36-3.82,1.09-5.25c0.73-1.43,1.73-2.6,3-3.5c1.28-0.9,2.76-1.55,4.46-1.95
					c1.69-0.4,3.54-0.6,5.52-0.6c2.38,0,4.63,0.22,6.74,0.66c2.11,0.44,3.83,0.97,5.15,1.59l0.26,0.73l-0.92,5.88h-1.85l-0.33-0.33
					c-0.09-1.15-0.46-2.07-1.12-2.78c-0.66-0.7-1.44-1.26-2.34-1.65c-0.9-0.4-1.87-0.66-2.91-0.79c-1.04-0.13-1.95-0.2-2.74-0.2
					c-2.86,0-5.11,0.63-6.74,1.88C613.96,696.4,613.14,698.19,613.14,700.53z"/>
				<path d="M654.5,700.53c0,1.23,0.22,2.26,0.66,3.07c0.44,0.82,1.11,1.53,2.01,2.15c0.9,0.62,2.05,1.18,3.44,1.68
					c1.39,0.51,3.03,1.05,4.92,1.62c1.63,0.53,3.24,1.12,4.82,1.78c1.59,0.66,3,1.51,4.26,2.54c1.26,1.04,2.26,2.29,3.01,3.77
					c0.75,1.48,1.12,3.27,1.12,5.38c0,2.25-0.44,4.15-1.32,5.71c-0.88,1.56-2.05,2.83-3.5,3.8c-1.45,0.97-3.14,1.67-5.05,2.11
					c-1.92,0.44-3.93,0.66-6.04,0.66c-2.73,0-5.22-0.31-7.47-0.93c-2.25-0.62-4.27-1.39-6.08-2.31l-0.27-0.86l1.12-7.07h1.65
					l0.33,0.4c0.22,2.69,1.3,4.66,3.24,5.91c1.94,1.26,4.58,1.88,7.93,1.88c3.44,0,6.02-0.78,7.76-2.34
					c1.74-1.56,2.61-3.6,2.61-6.11c0-1.54-0.33-2.83-0.99-3.87c-0.66-1.03-1.53-1.92-2.61-2.64c-1.08-0.72-2.31-1.33-3.7-1.82
					c-1.39-0.48-2.79-0.97-4.2-1.45c-1.76-0.57-3.4-1.2-4.92-1.88c-1.52-0.68-2.84-1.49-3.96-2.41c-1.12-0.93-2-2.02-2.64-3.3
					c-0.64-1.28-0.96-2.8-0.96-4.56c0-2.07,0.36-3.82,1.09-5.25c0.73-1.43,1.73-2.6,3-3.5c1.28-0.9,2.76-1.55,4.46-1.95
					c1.69-0.4,3.54-0.6,5.52-0.6c2.38,0,4.63,0.22,6.74,0.66c2.11,0.44,3.83,0.97,5.15,1.59l0.26,0.73l-0.92,5.88h-1.85l-0.33-0.33
					c-0.09-1.15-0.46-2.07-1.12-2.78c-0.66-0.7-1.44-1.26-2.34-1.65c-0.9-0.4-1.87-0.66-2.91-0.79c-1.04-0.13-1.95-0.2-2.74-0.2
					c-2.86,0-5.11,0.63-6.74,1.88C655.31,696.4,654.5,698.19,654.5,700.53z"/>
			</g>
			<g>
				<path d="M367.73,790.87c-3.17,0-5.9-1.08-8.17-3.25c-2.28-2.17-3.41-4.84-3.41-8.02c0-3.18,0.99-5.85,2.99-8.02
					c1.99-2.16,4.54-3.25,7.65-3.25c2.44,0,4.91,0.41,7.41,1.22l-0.4,1.22c-2.44-0.73-4.78-1.1-7.01-1.1
					c-2.66,0-4.84,0.96-6.52,2.87c-1.69,1.91-2.53,4.25-2.53,7.01c0,2.76,0.98,5.12,2.94,7.06c1.96,1.94,4.32,2.91,7.06,2.91
					c2.4,0,4.47-0.37,6.22-1.1l0.46,1.04c-0.77,0.45-1.78,0.79-3.03,1.04C370.12,790.75,368.91,790.87,367.73,790.87z"/>
				<path d="M410.63,790.51v-21.8h10.12v1.28h-8.66v8.02h7.84v1.25h-7.84v9.97h8.99v1.28H410.63z"/>
				<path d="M458.84,772.18l0.06,2.59v15.73h-1.46v-21.98h0.67l14.36,16.56c0.98,1.16,1.73,2.08,2.26,2.77
					c-0.08-0.98-0.12-2.09-0.12-3.35v-15.79h1.46v21.98h-0.67l-14.63-16.86c-1.02-1.16-1.67-1.93-1.95-2.32L458.84,772.18z"/>
				<path d="M518.63,769.99h-7.38v-1.28h16.22v1.28h-7.38v20.52h-1.46V769.99z"/>
				<path d="M562.66,790.51v-21.8h10.12v1.28h-8.66v8.02h7.84v1.25h-7.84v9.97h8.99v1.28H562.66z"/>
				<path d="M609.46,790.51V768.8c1.93-0.14,3.55-0.21,4.85-0.21c2.07,0,3.78,0.53,5.12,1.6c1.34,1.07,2.01,2.58,2.01,4.53
					c0,1.32-0.39,2.55-1.16,3.69c-0.77,1.14-1.64,2.04-2.59,2.71c0.75,1.04,1.68,2.27,2.79,3.7c1.11,1.43,1.83,2.33,2.15,2.7
					c1.24,1.32,2.64,2.07,4.21,2.26l-0.03,0.98c-1.24-0.02-2.25-0.21-3.02-0.56c-0.77-0.35-1.51-0.9-2.21-1.63
					c-0.7-0.73-2.44-3.01-5.23-6.83c-1.99,0-3.8-0.06-5.43-0.18v8.96H609.46z M615.47,780.51c0.89,0,1.85-0.59,2.87-1.77
					c1.02-1.18,1.52-2.55,1.52-4.1s-0.52-2.73-1.57-3.54c-1.05-0.8-2.43-1.21-4.16-1.21c-0.91,0-1.98,0.04-3.2,0.12v10.34
					C612.55,780.46,614.06,780.51,615.47,780.51z"/>
			</g>
		</g>
	</g>
</g>
</svg>
