<svg xmlns="http://www.w3.org/2000/svg" data-name="1" viewBox="0 0 128 128" id="phone"><path fill="#fff" d="M98 63V9.75A7.9 7.9 0 0 0 90 2H38a7.9 7.9 0 0 0-8 7.75v108.5a7.9 7.9 0 0 0 8 7.75h52a7.9 7.9 0 0 0 8-7.75Z"></path><path fill="#757575" d="M90 0H38a9.89 9.89 0 0 0-10 9.75v108.5A9.89 9.89 0 0 0 38 128h52a9.89 9.89 0 0 0 10-9.75V9.75A9.89 9.89 0 0 0 90 0Zm6 118.25a5.89 5.89 0 0 1-6 5.75H38a5.89 5.89 0 0 1-6-5.75V9.75A5.89 5.89 0 0 1 38 4h10a4.16 4.16 0 0 0 4 4h24a4.3 4.3 0 0 0 4-4h10a5.89 5.89 0 0 1 6 5.75Z"></path></svg>